<svg xmlns="http://www.w3.org/2000/svg" version="1.1" xmlns:xlink="http://www.w3.org/1999/xlink" xmlns:svgjs="http://svgjs.com/svgjs" width="1440" height="560" preserveAspectRatio="none" viewBox="0 0 1440 560">
    <g mask="url(&quot;#SvgjsMask1000&quot;)" fill="none">
        <rect width="1440" height="560" x="0" y="0" fill="none"></rect>
        <path d="M0,403.5C74.237,406.688,114.746,315.971,177.859,276.754C242.336,236.69,344.481,240.746,374.286,170.931C404.229,100.792,341.22,26.404,315.364,-45.342C294.761,-102.513,276.844,-159.504,238.28,-206.47C198.937,-254.385,145.353,-283.294,92.876,-316.308C20.286,-361.976,-46.742,-463.483,-128.352,-437.127C-210.806,-410.498,-199.079,-284.566,-240.709,-208.575C-271.511,-152.349,-322.069,-110.285,-340.964,-49.023C-362.186,19.784,-390.009,99.196,-355.051,162.146C-320.081,225.118,-227.876,221.395,-168.306,261.889C-106.417,303.959,-74.765,400.29,0,403.5" fill="rgba(0, 100, 49,0.3)"></path>
        <path d="M1440 1055.685C1537.496 1050.147 1630.177 1033.104 1721.019 997.273 1830.7350000000001 953.998 1972.348 932.768 2022.394 825.971 2072.397 719.265 1975.498 602.037 1961.033 485.087 1946.166 364.88300000000004 2014.462 222.47699999999998 1936.308 129.94600000000003 1858.27 37.553 1710.704 61.91399999999999 1590.729 46.66399999999999 1489.091 33.745000000000005 1386.278 13.855000000000018 1289.587 47.74000000000001 1195.443 80.73200000000003 1127.661 157.365 1061.584 232.101 994.894 307.53 920.292 383.567 904.724 483.039 889.085 582.967 937.576 678.294 977.185 771.36 1017.787 866.759 1049.344 976.14 1137.685 1030.411 1225.629 1084.438 1336.952 1061.539 1440 1055.685" fill="rgba(0, 100, 49,0.1)"></path>
    </g>
    <defs>
        <mask id="SvgjsMask1000">
            <rect width="1440" height="560" fill="#ffffff"></rect>
        </mask>
    </defs>
</svg>
